<svg t="1608791522658" class="icon" viewBox="0 0 1024 1024" version="1.1" xmlns="http://www.w3.org/2000/svg" p-id="8017" width="32" height="32"><path d="M327.68 804.864l77.824-122.88 47.104-75.776h-96.256l73.728-88.064 51.2-77.824h-88.064l131.072-137.216 131.072 137.216h-86.016l51.2 77.824 73.728 88.064h-96.256l47.104 75.776 77.824 122.88H327.68z" fill="#c8413e" p-id="8018" data-spm-anchor-id="a313x.7781069.0.i78" class="selected"></path><path d="M720.896 804.864h-196.608V301.056l131.072 139.264h-86.016l51.2 75.776 71.68 90.112h-96.256l49.152 75.776z" fill="#507c25" p-id="8019" data-spm-anchor-id="a313x.7781069.0.i77" class=""></path><path d="M788.48 827.392l-114.688-184.32h79.872c8.192 0 12.288-8.192 8.192-16.384l-114.688-151.552h77.824c8.192 0 14.336-10.24 8.192-16.384L520.192 221.184c-4.096-4.096-12.288-4.096-16.384 0L288.768 460.8c-6.144 6.144 0 16.384 8.192 16.384h77.824l-114.688 151.552c-4.096 6.144 0 16.384 8.192 16.384H348.16l-114.688 184.32c-4.096 6.144 0 16.384 8.192 16.384h243.712v83.968h51.2v-83.968h243.712c8.192-2.048 12.288-12.288 8.192-18.432z m-473.088-34.816l77.824-122.88 47.104-75.776h-96.256l73.728-88.064 51.2-77.824h-86.016l131.072-137.216 131.072 137.216h-86.016l51.2 77.824 73.728 88.064h-96.256l47.104 75.776 77.824 122.88h-176.128v-49.152h-49.152v49.152h-172.032z" fill="#330A00" p-id="8020" data-spm-anchor-id="a313x.7781069.0.i81" class=""></path><path d="M610.304 954.368h-196.608c-14.336 0-24.576-10.24-24.576-24.576s10.24-24.576 24.576-24.576h196.608c14.336 0 24.576 10.24 24.576 24.576s-12.288 24.576-24.576 24.576z" fill="#330A00" p-id="8021"></path><path d="M512 69.632l20.48 43.008 49.152 8.192-34.816 34.816 8.192 47.104L512 180.224l-45.056 22.528 10.24-47.104-36.864-34.816 49.152-8.192z" fill="#F7BF7C" p-id="8022"></path></svg>