<svg t="1608790822990" class="icon" viewBox="0 0 1024 1024" version="1.1" xmlns="http://www.w3.org/2000/svg" p-id="5145" width="32" height="32"><path d="M153.9 573.7S202.6 346.4 313 266.2c110.4-80.2 326.5-70.1 376.2-45.4 49.7 24.7 145.8 131.5 170.2 208.9C894.6 541.6 886.3 566 886.3 566h-35.8s-56.6-94.8-98.5-118.1c0 0 14.6 100.4 42 148.3 27.3 47.9-624.2-3-624.2-3l-15.9-19.5z" fill="#c8413e" p-id="5146" data-spm-anchor-id="a313x.7781069.0.i54" class=""></path><path d="M356 270.6c-37.1 22.9-82 46.7-134.7 157.2-46.5 97.2-40.3 122.1-22.5 123.5 17.8 1.3 74.6 0 123.5 0 48.9 0 47.1-33.7 11.2-33.7-35.9 0-99.4 32.4-67.4-67.4 34.7-108.1 126-144.9 146-168.4 19-24.4-12.6-38-56.1-11.2z" fill="#c8413e" p-id="5147" data-spm-anchor-id="a313x.7781069.0.i55" class=""></path><path d="M681.6 236.9h-11.2s54.7 181.9 78.6 235.8c3.5 8 7.2 14.2 11 19.2-5.3-25.2-8.1-44-8.1-44 16.9 9.4 36.2 30.4 53.2 52.1v-38.6c0.3 0.6-10.1-48.8-45.5-117.6-27.7-53.7-78-106.9-78-106.9z" fill="#BF3C3C" p-id="5148"></path><path d="M868.2 607.4m-71.6 0a71.6 71.6 0 1 0 143.2 0 71.6 71.6 0 1 0-143.2 0Z" fill="#F9F9F9" p-id="5149"></path><path d="M876.1 535.8c22.8 12 38.4 35.8 38.4 63.4 0 39.5-32 71.6-71.6 71.6-2.7 0-5.3-0.2-7.9-0.5 9.9 5.2 21.2 8.2 33.2 8.2 39.5 0 71.6-32 71.6-71.6 0-36.8-27.9-67.1-63.7-71.1z" fill="#E6E7E8" p-id="5150"></path><path d="M142.7 573.7h662.4c40.5 0 91 45.7 89.8 93.7-1 40.9-41.5 52.3-82.1 52.3H153.9c-40.5 0-99-21.6-88.2-61 10.5-38.6 36.4-85 77-85z" fill="#F9F9F9" p-id="5151"></path><path d="M841.5 584.4c10.7 15 17.4 32.5 16.9 50.3-1 40.9-41.5 52.3-82.1 52.3H117.4c-16.2 0-35.2-3.5-51.6-10.2 8.2 27.9 54.3 42.9 88.1 42.9h658.9c40.5 0 81.1-11.4 82.1-52.3 0.8-34-24.3-66.8-53.4-83z" fill="#EAEDEF" p-id="5152"></path></svg>