<svg t="1604384987995" class="icon" viewBox="0 0 1024 1024" version="1.1" xmlns="http://www.w3.org/2000/svg" p-id="16080" width="200" height="200"><path d="M853.333333 170.666667H170.666667a85.333333 85.333333 0 0 0-85.333334 85.333333v512a85.333333 85.333333 0 0 0 85.333334 85.333333h682.666666a85.333333 85.333333 0 0 0 85.333334-85.333333V256a85.333333 85.333333 0 0 0-85.333334-85.333333z m0 298.666666l-270.933333 189.866667a122.88 122.88 0 0 1-140.8 0L170.666667 469.333333V379.733333l313.6 219.733334a48.64 48.64 0 0 0 55.466666 0L853.333333 379.733333z" p-id="16081"></path></svg>