<!-- <svg t="1608282827837" class="icon" viewBox="0 0 1718 1024" version="1.1" xmlns="http://www.w3.org/2000/svg" p-id="5959" width="200" height="200"><path d="M836.265 36.049a35.99 35.99 0 0 1-36.029 35.95H656.337a35.98 35.98 0 1 1 0-71.96h143.9a36.01 36.01 0 0 1 36.028 36.01z m195.944 0c0 19.876-11.347 35.97-25.333 35.97h-101.27c-14.007 0-25.334-16.114-25.334-35.97S891.6 0 905.605 0h101.271c14.006 0 25.333 16.114 25.333 35.99z m219.936 145.948a41.978 41.978 0 0 1-41.997 41.997H794.327a41.988 41.988 0 0 1 0-83.975h415.82a41.978 41.978 0 0 1 41.998 41.978z m111.968 149.947a40.008 40.008 0 0 1-40.008 40.008h-627.8a39.998 39.998 0 0 1 0-79.997h627.8a40.028 40.028 0 0 1 40.028 39.989z m35.99 141.968a41.998 41.998 0 0 1-41.998 41.998h-115.986a41.998 41.998 0 0 1 0-83.995h115.986a41.978 41.978 0 0 1 41.998 41.997z m-231.953 0c0 23.206-27.933 41.998-62.465 41.998H302.843c-34.473 0-62.425-18.792-62.425-41.998s27.952-41.978 62.425-41.978h802.862c34.532 0 62.465 18.793 62.465 41.998z m0 0" fill="#E4EEF2" p-id="5960"></path><path d="M484.347 559.878a43.987 43.987 0 0 1-44.007 44.007h-59.982a43.987 43.987 0 1 1 0-87.975h59.982a43.987 43.987 0 0 1 44.007 43.968z m0 0" fill="#E4EEF2" p-id="5961"></path><path d="M916.242 645.863a47.986 47.986 0 0 1-47.986 48.006h-687.82a47.986 47.986 0 0 1-41.565-23.993 47.947 47.947 0 0 1 0-47.987 47.986 47.986 0 0 1 41.564-23.993h687.802a47.986 47.986 0 0 1 47.986 47.987z m615.842 169.547a47.572 47.572 0 0 1-47.552 47.553H911.81a47.572 47.572 0 0 1 0-95.126h572.702a47.592 47.592 0 0 1 47.572 47.553z m0 0" fill="#E4EEF2" p-id="5962"></path><path d="M1052.203 897.376a34.414 34.414 0 0 1-34.433 34.375h-47.14a34.424 34.424 0 1 1 0-68.847h47.14a34.453 34.453 0 0 1 34.433 34.413z m383.929 68.71a34.296 34.296 0 0 1-34.335 34.295H762.553a34.296 34.296 0 0 1 0-68.59h639.244a34.315 34.315 0 0 1 34.335 34.295z m131.981 0a34.296 34.296 0 0 1-34.275 34.295h-27.382a34.296 34.296 0 1 1 0-68.59h27.382a34.296 34.296 0 0 1 34.275 34.295z m0 0" fill="#E4EEF2" p-id="5963"></path><path d="M1147.407 55.275H546.792s-46.193-5.772-49.109 54.86 0 696.529 0 779.224c-0.965 67.527 82.735 82.242 112.618 43.79 40.442-49.07 14.44-106.846 5.792-109.761s563.108 0 563.108 0V133.242s7.88-78.125-31.794-77.967z m0 0" fill="#FFFFFF" p-id="5964"></path><path d="M563.26 961.496c-20.703 0-40.323-7.88-53.816-21.57-12.844-13.04-19.502-30.573-19.207-50.665 0-18.498-0.138-65.006-0.335-126.84-0.67-211.585-1.97-605.461 0.335-652.64 2.187-45.82 29.017-62.13 53.384-62.13a33.724 33.724 0 0 1 4.117 0.217h599.689a31.518 31.518 0 0 1 24.288 10.696c20.093 22.2 15.13 73.28 14.912 75.387v696.922h-7.505s-254.114-1.3-420.942-1.3c-75.624 0-111.279 0.276-127.707 0.572a90.614 90.614 0 0 1 5.26 13.789 102.158 102.158 0 0 1-19.7 93.884c-11.602 14.951-30.907 23.638-52.812 23.638zM543.563 62.583c-10.874 0-36.384 4.688-38.472 47.907-2.186 46.804-0.945 440.425-0.335 651.852 0.197 61.775 0.335 108.343 0.335 126.997-0.236 16.134 4.925 29.942 14.912 40.068a60.692 60.692 0 0 0 43.2 17.118c17.275 0 32.266-6.54 41.15-17.985a86.34 86.34 0 0 0 19.935-65.735c-1.97-18.28-9.041-30.828-11.464-32.72a7.072 7.072 0 0 1-4.177-7.879c0.473-2.935 0.749-4.708 9.85-5.791 14.124-1.694 49.483-1.694 139.723-1.694 149.927 0 370.336 1.044 413.496 1.24V133.243c1.36-13.67 1.97-50.35-11.11-64.73a16.606 16.606 0 0 0-13.1-5.771H546.793c-1.044 0-1.97-0.138-3.171-0.138z m0 0" fill="#8A8A8A" p-id="5965"></path><path d="M575.434 186.705h528.34v145.16h-528.34z m0 195.017h500.092v31.282H575.434z m0 77.298h264.2v31.282h-264.2z m0 90.3h434.771v31.28h-434.77z m0 89.766h319.987v31.282H575.434z m778.83 119.926c12.981 12.962 16.645 30.652 8.194 39.516s-25.805 5.516-38.747-7.466l-124.496-124.555c-12.942-12.962-16.626-30.67-8.155-39.516s25.785-5.515 38.708 7.466z m0 0" fill="#D8EDE9" p-id="5966"></path><path d="M1349.832 807.136c-9.535 0-20.29-5.042-28.721-13.513l-124.496-124.555c-14.617-14.617-18.222-34.276-8.215-44.736 9.515-10.066 30.08-6.56 44.047 7.427l124.476 124.555c14.617 14.596 18.26 34.236 8.254 44.716a20.506 20.506 0 0 1-15.365 6.126z m-146.086-181.464a13.395 13.395 0 0 0-9.85 3.782c-6.973 7.269-3.25 22.988 8.077 34.335l124.496 124.555c7.072 7.072 15.759 11.307 23.441 11.307a13.474 13.474 0 0 0 9.77-3.822c6.955-7.288 3.212-22.988-8.115-34.295l-124.476-124.575c-7.072-7.092-15.76-11.327-23.462-11.327z m0 0" fill="#000333" p-id="5967"></path><path d="M1188.597 630.36c-9.534 2.856 3.546-5.555-1.162 6.146-1.714 10.066 2.384 18.458 9.987 26.16l118.193 120.26c12.174 12.43 36.502 25.038 42.47 17.552 0.611-0.788 1.3-1.477 1.97-2.245z m0 0" fill="#000333" p-id="5968"></path><path d="M1209.3 410.857a175.2 175.2 0 1 0 0 247.79 175.319 175.319 0 0 0 0-247.79" fill="#FFFFFF" p-id="5969"></path><path d="M1085.455 717.31a182.568 182.568 0 1 1 129.105-53.462 181.524 181.524 0 0 1-129.125 53.403z m0-350.184a167.656 167.656 0 1 0 118.606 49.03 166.592 166.592 0 0 0-118.528-49.03z m0 0" fill="#000333" p-id="5970"></path><path d="M1181.624 494.931h-21.452v-7.466h21.452z m-43.85 0h-22.358v-7.466h22.398z m-44.775 0h-22.397v-7.466h22.397z m-44.795 0h-22.377v-7.466h22.377z m-44.755 0H981.05v-7.466h22.398z m122.86-61.066h-22.397v-7.466h22.398z m-44.774 0h-22.398v-7.466h22.398z m-44.776 0h-22.417v-7.466h22.398z m165.588 140.944h-20.94v-7.485h20.94z m-43.337 0h-22.378v-7.485h22.378z m-44.776 0h-22.456v-7.485h22.456z m-44.775 0h-22.397v-7.485h22.397z m-44.795 0h-22.377v-7.485h22.377z m-44.755 0h-22.417v-7.485h22.397z m155.502 74.856h-22.418v-7.486h22.398z m-44.795 0h-22.477v-7.486h22.457z m-44.756 0h-22.437v-7.486h22.398z m0 0" fill="#999999" p-id="5971"></path><path d="M607.76 818.266s54.94 103.419-47.395 135.784c114.647-1.025 659.612 2.856 659.612 2.856s43.338-26.987 55.157-56.319-8.668-70.698-26.002-82.734c-37.861-3.684-641.47 0.433-641.47 0.433z m0 0" fill="#EEEEEE" p-id="5972"></path><path d="M1221.041 960.63h-1.083c-4.236 0-425.73-3.015-602.447-3.015-23.639 0-43.002 0-56.536 0.158h-0.197l-6.067-0.67-0.473-3.605 0.197-3.546h3.9l1.656 0.178c27.105-8.727 45.05-23.462 53.363-43.732 15.917-38.865-8.667-86.024-8.903-86.497l-2.896-5.437h6.146c2.896 0 290.655-1.97 479.113-1.97 97.43 0 152.212 0.513 162.77 1.537l0.966 0.099 0.807 0.551c19.246 13.356 39.654 56.831 27.323 87.206s-54.9 56.95-56.733 58.092z m-603.53-10.48c172.285 0 577.173 2.836 601.403 3.013 6.185-3.94 42.45-28.405 52.871-53.994 11.15-27.578-8.53-66.207-23.875-77.712-12.45-0.945-66.621-1.418-161.037-1.418-173.467 0-431.087 1.655-473.164 1.97 6.304 14.124 20.703 52.91 6.638 87.344-7.17 17.552-20.644 31.243-40.185 40.895h37.428z m0 0" fill="#000333" p-id="5973"></path><path d="M1596.066 269.499a54.743 54.743 0 0 1-55.157 54.309H1299.58a54.743 54.743 0 0 1-55.156-54.31V251.1a54.763 54.763 0 0 1 55.156-54.31h241.33a54.763 54.763 0 0 1 55.156 54.31z m0 0" fill="#FFFFFF" p-id="5974"></path><path d="M1540.91 326.605h-241.33a57.6 57.6 0 0 1-57.954-57.126V251.08a57.6 57.6 0 0 1 57.954-57.126h241.33a57.6 57.6 0 0 1 57.953 57.126v18.399a57.619 57.619 0 0 1-57.954 57.126z m-241.33-127.017a51.985 51.985 0 0 0-52.34 51.512v18.399a51.985 51.985 0 0 0 52.34 51.59h241.33a51.985 51.985 0 0 0 52.339-51.512V251.18a51.985 51.985 0 0 0-52.34-51.591z m0 0" fill="#000333" p-id="5975"></path><path d="M1348.531 380.659l21.117-59.57h78.047z m25.077-54.054l-14.597 41.23 68.493-41.23z m0 0" fill="#000333" p-id="5976"></path><path d="M1369.708 337.853l8.332-23.934 23.008-4.649 23.422 5.004 7.88 3.821 7.741 0.907-39.397 23.638-41.703 25.096z m1.516 0" fill="#FFFFFF" p-id="5977"></path><path d="M1343.922 258.369a16.823 16.823 0 1 1-16.823-16.31 16.823 16.823 0 0 1 16.823 16.31z m101.448 0a16.842 16.842 0 1 1-16.822-16.31 16.823 16.823 0 0 1 16.822 16.31z m101.449 0a16.842 16.842 0 1 1-16.803-16.31 16.823 16.823 0 0 1 16.803 16.31z m0 0" fill="#000333" p-id="5978"></path></svg> -->
<svg t="1608283100534" class="icon" viewBox="0 0 1024 1024" version="1.1" xmlns="http://www.w3.org/2000/svg" p-id="10227" width="200" height="200"><path d="M937.797 681.551a30.697 30.697 0 0 1-42.335 1.004l33.608-53.174 8.727 8.725a30.72 30.72 0 0 1 0 43.445z m-257.17 309.635l228.176-355.74s-203.915 83.39-203.897 83.632c-5.831 25.833-27.095 48.034-49.797 54.953-42.04 11.794-56.601-1.32-64.166-4.83-29.722 12.6-82.54 33.953-124.739 51.666-39.099 16.412-70.456 30.208-70.428 23.915 0.038-9.032 25.761-14.477 48.911-24.993 52.898-24.03 131.817-54.917 136.922-56.707-5.548-5.207-16.028-15.076-18.176-16.983-3.976 0.197-1.464 1.096-7.104 0.328-31.43 10.24-55.176 18.237-70.605 23.012-18.35 15.183-26.775 22.745-35.84 25.6-9.195 2.895-18.982 0.947-30.72-2.56-21.327 8.4-42.13 16.087-53.76 20.48-8.878 2.37-13.256-0.71-6.584-6.4 9.69-3.193 36.07-12.718 52.664-19.2-10.555-5.24-24.35-18.588-22.48-30.331 4.936-19.564 32.769-19.712 42.159-19.994 40.448-40.228 71.132-95.744 120.857-109.703-0.215-13.213 0.136-23.202 0.54-39.286-9.471-4.288-23.769-20.304-24.985-21.082a155.392 155.392 0 0 1-35.023-11.113 0.64 0.64 0 0 1-0.512 0.804 26.7 26.7 0 0 1-8.912 8.133 80.256 80.256 0 0 0 26.793 10.373c15.59 2.343 30.027 1.252 29.678 6.213-0.338 4.831-26.665 6.278-54.643-7.26a185.428 185.428 0 0 1-78.758-70.254 4.352 4.352 0 0 1-0.633-1.446l-4.326 0.786-0.146-0.139a40.681 40.681 0 0 1-13.04 1.839c-21.745-0.597-38.913-19.26-45.983-46.2l-40.671 6.1v-0.095a19.768 19.768 0 0 1-5.632 0.159c-20.224-2.675-32.404-36.662-27.21-75.907s25.8-68.89 46.023-66.212a19.594 19.594 0 0 1 4.716 1.316V324l1.221 0.609c0.545 0.256 1.096 0.512 1.626 0.814l48.025 24.013c10.14-9.334 21.89-14.666 33.995-14.336a38.979 38.979 0 0 1 20.963 6.9l7.542 3.53a153.236 153.236 0 0 1 124.731-62.49c82.27 0 149.128 62.44 150.953 140.111 14.336 7.54 21.635 26.788 16.558 46.336-1.154 4.434 31.708 41.695 7.708 62.085-15.56 6.32-47.063-15.175-54.784-14.671-12.057 10.544-21.504 20.946-34.383 29.811a106.276 106.276 0 0 1-31.002-1.595c-0.179 8.348 8.92 33.065-26.552 55.952 17.487 8.448 19.538 11.79 65.536 12.861 0.067 1.475 5.78 8.788-4.575 8.614-14.164-0.238-36.761-0.512-52.045-6.832a151.946 151.946 0 0 1-35.24-21.248c0.611 7.92-0.323 20.418 0.215 31.262 5.67-0.535 19.95-2.224 50.664 19.91 25.088 18.068 56.233 48.322 69.93 63.764 4.295 4.841-0.871 11.39-6.2 5.432-8.52-9.528-29.484-33.71-56.984-53.652-1.4 13.611-4.5 44.836-52.856 73.124 41.27 46.418 79.24 40.043 102.144 24.32 22.978-15.783 35.108-44.58 32.822-44.319-3.034 2.304-12.258 5.591-11.864-0.212 0.172-5.696 11.464-4.57 15.847-14.416 6.377-14.336 2.427-74.644-16.225-123.876-5.909-15.59-15.926-28.882-22.416-34.398-4.224-3.584-0.1-9.283 6.958-3.994 13.678 10.24 35.996 62.223 40.21 109.15 53.038-6.202 215.04-24.993 215.04-24.993L685.194 1004.64s-162.872-80.694-291.932-145.902c-3.525 11.538-24.456 90.091-24.456 90.091s41.664-25.139 86.272-50.335c12.153-6.863 4.199 5.476-7.82 13.197-24.97 16.041-51.81 30.771-74.916 48.103-4.275 2.168-13.19 4.272-16.64-7.092-5.243-33.73-12.485-116.692-14.336-136.122 4.431-1.48-77.568-61.202-112.543-88.346-19.366-15.027-22.738-24.932-1.664-27.686 53.376-6.976 224.497-23.96 224.497-23.96s11.553-55.92 39.936-69.503c26.209-12.544 56.614 15.979 55.142 18.306-6.11 9.656-30.418-26.88-57.687-7.33-28.393 20.348-31.083 87.776-38.69 93.308-34.646 13.611-33.988 28.874-40.552 23.5-2.96-1.715 8.304-16.896 35.584-28.513 5.376-13.245 4.57-21.391 4.57-21.391s-183.527 19.502-222.884 23.892c-6.173 0.689-5.617 2.437-5.617 2.437L348.41 809.78l13.824 132.839 24.164-87.939a6.492 6.492 0 0 1 9.37-3.627c17.159 8.48 284.858 140.134 284.858 140.134zM559.503 739.628s-5.445-5.597-9.953-10.105a78.52 78.52 0 0 1-7.511-8.724l-7.424 5.888s6.121 4.436 13.292 8.563a46.886 46.886 0 0 0 11.596 4.378z m-12.646 2.529a87.378 87.378 0 0 1-11.72-5.909 66.952 66.952 0 0 1-6.075-4.608L493.4 759.2zM521.001 558.52s-16.765-21.145-21.317-30.899c-5.735-12.288-10.056-21.156-12.416-29.993-2.023-7.57-4.92-19.164-4.92-19.164l-9.531 12.188-37.673 6.426s12.641 20.854 30.999 33.536c23.306 16.077 54.855 27.906 54.855 27.906z m-25.272-134.425a116.06 116.06 0 0 0-7.168-42.768l-47.243-22.236s17.04 22.628 11.933 66.768c-5.318 45.944-32.65 66.754-32.65 66.754l49.062-9.472a74.972 74.972 0 0 0 10.26-13.135c-27.607-44.654 6.026-46.649 15.806-45.911z m-20.713 135.913c5.726-2.245 8.58-4.396 8.676-8.049a3.84 3.84 0 0 1 0.376-0.256 148.39 148.39 0 0 1-57.185-53.143c-5.202 0.932-9.472 1.7-12.944 2.327 5.814 9.518 20.416 31.808 61.077 59.126z m-135.06-109.724a137.83 137.83 0 0 1-1.204-18.543c0.023-10.496 1.14-21.37 1.14-21.37a136.57 136.57 0 0 1-10.21 28.244 81.761 81.761 0 0 1-10.831 15.944z m-26.039-121.629c-16.437-2.096-33.65 25.065-38.446 60.672s4.65 66.164 21.09 68.26 33.65-25.065 38.443-60.672-4.646-66.163-21.087-68.26z m20.667 11.116a88.88 88.88 0 0 1 7.977 31.567 132.764 132.764 0 0 1-1.756 34.65c-0.397 1.792-0.594 2.867-0.594 2.867s0.256-1.024 0.594-2.867a143.242 143.242 0 0 1 10.52-30.96 78.897 78.897 0 0 1 13.662-20.31z m69.947 3.397c-27.392-3.159-53.545 28.506-58.416 70.728s13.386 79.012 40.778 82.176 53.545-28.506 58.416-70.728-13.386-79.017-40.778-82.176z m135.237-52.67a175.496 175.496 0 0 0-46.658 15.076c34.529-0.13 93.56 4.731 138.578 61.369 11.008 2.089 24.356-10.26 16.228-21.392-37.054-44.797-83.336-54.704-108.148-55.052z m147.182 77.458c-14.08-26.304-48.69-59.366-85.926-71.905 40.75 22.981 55.117 46.981 55.117 46.981s4.096 11.47 0.742 19.05a25.236 25.236 0 0 1-10.795 11.637 97.16 97.16 0 0 1 12.382 20.598 115.791 115.791 0 0 1 6.613 26.88 36.068 36.068 0 0 1 15.14-4.933 56.064 56.064 0 0 1 19.5 2.334 107.19 107.19 0 0 0-12.773-50.642z m40.177 157.515c7.28-2.048 12.424-17.408-5.376-43.42a31.178 31.178 0 0 1-8.847 10.972c6.023 6.656 16.033 25.64 11.353 27.689-4.352 1.871-7.424-13.996-17.989-23.435a93.33 93.33 0 0 1-20.36 4.21 29.952 29.952 0 0 1-3.612 8.503c16.635 4.729 35.275 18.174 44.831 15.48z m-86.467 13.17c14.864-11.916 29.781-23.807 36.895-36.84-10.04-3.328-5.12-10.191-0.512-9.283 26.092 5.138 36.961-15.546 35.49-13.38 13.916-20.445 2.65-60.9-39.2-53.505-10.572 1.867-19.281 18.788-23.17 11.577-2.985-5.535 3.717-9.39 6.815-11.1 0.596-9.255-8.366-36.442-19.131-48.684a25.18 25.18 0 0 1-10.831-0.988c-12.442-14.193-52.322-68.127-146.975-62.252-9.262 2.716-32.102 23.207-39.608 35.034 20.124 9.11 53.662 25.072 53.662 25.072s2.752 5.745 3.979 8.274c21.122 9.672 58.949 26.545 58.949 26.545s22.054 34.273-7.053 58.422c17.185 29.939 25.869 54.328 58.593 68.244a232.82 232.82 0 0 0 32.1 2.857zM503.537 424.864c23.35 4.761 42.496 35.53 42.496 35.53a39.145 39.145 0 0 0 10.598-21.706c1.04-9.846-5.75-24.28-5.75-24.28l-49.83-21.273a88.663 88.663 0 0 1 2.486 31.729z m73.438 169.395c34.486-17.134 25.7-38.526 25.7-49.69-49.344-21.447-73.515-138.962-124.388-107.264-6.927 4.316 8.049 28.242 13.269 44.493 6.128 19.077 8.537 29.494 22.356 52.751 16.018 26.952 37.497 45.574 63.063 59.702z m19.907 101.14a66.524 66.524 0 0 0 10.929-39.982s-25.073-21.299-42.402-21.97c-45.432-1.76-128.873 111.184-128.873 111.184s-43.364-1.134-39.751 16.834c3.307 16.459 37.575 31.847 50.531 26.327 21.612-9.216 100.153-87.854 112.082-92.523 13.358-5.23-5.335 15.178-11.008 19.993 9.337 11.843 10.816 11.047 10.816 11.047s26.44-14.526 37.676-30.917z m116.07-41.784a197.62 197.62 0 0 1 0.512 37.097 43.722 43.722 0 0 1-7.027 18.87l141.473-55.388s-91.066 27.945-119.41 38.656c-15.47 5.85-6.206-6.126-6.206-6.126L879.93 635.42z m-13.716-192.166c-0.835 4.828-13.888 0.768-20.263 6.364-8.279 7.28-7.152 14.336-11.363 14.172-3.372-0.13-1.344-8.192 2.816-15.634 7.488-13.494 30.796-11.633 28.81-4.91zM551.51 365.164c-4.539-4.552-6.595-9.859-4.593-11.856s7.307 0.072 11.846 4.608 6.592 9.859 4.59 11.856-7.296-0.06-11.843-4.608z m-81.628-24.354c-6.116 1.109-11.436-0.363-11.886-3.284s4.144-6.19 10.258-7.299 11.435 0.361 11.883 3.285-4.132 6.19-10.245 7.298z m160.476 11.349a6.4 6.4 0 1 1 6.4-6.4 6.4 6.4 0 0 1-6.4 6.4zM389.084 488.108c-22.899-2.304-38.349-34.978-34.509-72.96s25.516-66.88 48.415-64.566 38.351 34.977 34.511 72.96-25.51 66.882-48.417 64.566z m12.66-129.257c-18.105-1.716-35.403 24.002-38.634 57.438s8.822 61.934 26.926 63.65 35.4-24.003 38.633-57.44-8.821-61.933-26.918-63.648z m-103.1 91.563c-12.833-1.587-20.285-28.523-16.64-60.16s16.996-56.01 29.832-54.426 20.286 28.524 16.64 60.16-16.998 56.01-29.832 54.426z m12.45-108.152c-9.2-1.045-19.226 20.736-22.393 48.653s1.726 51.386 10.924 52.43 19.223-20.735 22.39-48.64-1.723-51.399-10.921-52.443z m525.908 283.305a20.362 20.362 0 0 0-23.006 2.588l-95.317 10.724s-3.935-21.379-12.8-51.2c-13.204-44.424-30.72-56.32-30.72-56.32l7.68-7.68s47.43 28.385 58.88 10.24c6.464-8.487 14.58-33.324-7.68-64 1.536-20.87 2.304-40.274-20.48-56.32-11.448-112.866-114.432-151.854-189.44-135.68-39.603 8.537-74.977 33.103-94.72 58.88-8.61-4.145-27.085-25.237-58.88 2.56-23.736-10.327-47.831-25.316-58.88-28.16-74.01 21.621-67.428 160.443-17.92 163.84 21.266-2.942 29.67-4.895 43.52-7.68 2.37 14.133 17.574 53.248 64 43.52 11.49 21.17 34.767 49.735 84.48 71.68 23.16 10.224 45.768 11.371 53.76 7.68 1.649 1.392 7.68 5.12 7.68 5.12v20.48s-22.571-28.526-56.32-17.92c-36.664 11.52-43.52 71.68-43.52 71.68l-230.4 25.6s-11.103 1.203-12.8 7.68c-3.149 12.004 7.68 20.48 7.68 20.48l120.32 94.72 5.31 43.806a392.084 392.084 0 0 1-193.12-495.93L90.628 312.27a46.08 46.08 0 0 1 65.167-65.167l34.394 34.399 0.079 0.082a33.28 33.28 0 0 0 46.984-47.14l-43.446-43.446a30.72 30.72 0 0 1 43.443-43.446l50.688 50.688a28.16 28.16 0 0 0 42.086-37.237l0.213-0.113-44.109-44.106a12.8 12.8 0 0 1 18.102-18.102l50.65 50.647a391.782 391.782 0 0 1 536.84 442.7l24.614 24.618zM211.8 606.879a1.28 1.28 0 0 0-1.28-1.28h-16.64v-16.64a1.28 1.28 0 0 0-1.28-1.28h-2.56a1.28 1.28 0 0 0-1.28 1.28v16.64h-16.64a1.28 1.28 0 0 0-1.28 1.28v2.56a1.28 1.28 0 0 0 1.28 1.28h16.64v16.64a1.28 1.28 0 0 0 1.28 1.28h2.56a1.28 1.28 0 0 0 1.28-1.28v-16.64h16.64a1.28 1.28 0 0 0 1.28-1.28v-2.56z m21.76-295.68a16.64 16.64 0 1 0 16.64 16.64 16.64 16.64 0 0 0-16.64-16.64z m262.4-122.88a33.28 33.28 0 1 0 33.28 33.28 33.28 33.28 0 0 0-33.28-33.28z m250.88 76.8a2.56 2.56 0 0 0-2.56-2.56h-15.36v-15.36a2.56 2.56 0 0 0-2.56-2.56h-2.56a2.56 2.56 0 0 0-2.56 2.56v15.36h-15.36a2.56 2.56 0 0 0-2.56 2.56v2.56a2.56 2.56 0 0 0 2.56 2.56h15.36v15.36a2.56 2.56 0 0 0 2.56 2.56h2.56a2.56 2.56 0 0 0 2.56-2.56v-15.36h15.36a2.56 2.56 0 0 0 2.56-2.56v-2.56z m70.4 227.84a11.52 11.52 0 1 0 11.52 11.52 11.52 11.52 0 0 0-11.52-11.52z m0 19.748a8.228 8.228 0 1 1 8.228-8.228 8.228 8.228 0 0 1-8.228 8.228z m-92.16-242.468a3.84 3.84 0 1 1 3.84-3.84 3.84 3.84 0 0 1-3.84 3.84z m-229.12-20.48a28.16 28.16 0 1 1 28.16-28.16 28.16 28.16 0 0 1-28.16 28.16z m-262.4 91.023a12.943 12.943 0 1 1 12.943-12.943 12.943 12.943 0 0 1-12.943 12.943z m-42.24 269.937a2.56 2.56 0 1 1 2.56-2.56 2.56 2.56 0 0 1-2.56 2.56z m45.857-463.25l-0.804-0.807z m0.077 0.077l-0.074-0.075z m628.626-46.267h-16.64v16.64a1.28 1.28 0 0 1-1.28 1.28h-5.12a1.28 1.28 0 0 1-1.28-1.28v-16.64h-16.64a1.28 1.28 0 0 1-1.28-1.28v-5.12a1.28 1.28 0 0 1 1.28-1.28h16.64v-16.64a1.28 1.28 0 0 1 1.28-1.28h5.12a1.28 1.28 0 0 1 1.28 1.28v16.64h16.64a1.28 1.28 0 0 1 1.28 1.28v5.12a1.28 1.28 0 0 1-1.28 1.28z m-16.64-6.4a1.28 1.28 0 0 0-1.28-1.28h-5.12a1.28 1.28 0 0 0-1.28 1.28v5.12a1.28 1.28 0 0 0 1.28 1.28h5.12a1.28 1.28 0 0 0 1.28-1.28v-5.12z m-184.32 16.64a15.36 15.36 0 1 1 15.36-15.36 15.36 15.36 0 0 1-15.36 15.36z m0-28.16a12.8 12.8 0 1 0 12.8 12.8 12.8 12.8 0 0 0-12.8-12.8z m-298.24-46.08h-11.52v11.52a1.28 1.28 0 0 1-1.28 1.28h-2.56a1.28 1.28 0 0 1-1.28-1.28v-11.52h-11.52a1.28 1.28 0 0 1-1.28-1.28v-2.56a1.28 1.28 0 0 1 1.28-1.28h11.52v-11.52a1.28 1.28 0 0 1 1.28-1.28h2.56a1.28 1.28 0 0 1 1.28 1.28v11.52h11.52a1.28 1.28 0 0 1 1.28 1.28v2.56a1.28 1.28 0 0 1-1.28 1.28z m-11.52-3.84a1.28 1.28 0 0 0-1.28-1.28h-2.56a1.28 1.28 0 0 0-1.28 1.28v2.56a1.28 1.28 0 0 0 1.28 1.28h2.56a1.28 1.28 0 0 0 1.28-1.28v-2.56z m-186.696 88.763a30.72 30.72 0 0 1-43.443 0L106.918 104.1a30.72 30.72 0 0 1 43.441-43.446l18.102 18.102a30.72 30.72 0 0 1 0.002 43.446zM86.851 308.495l1.456 1.457zM869.01 779.302a46.124 46.124 0 0 1-42.703 12.662l46.533-73.618a45.499 45.499 0 0 1-3.83 60.956z" p-id="10228" fill="#515151"></path></svg>